# xmcd
#
# Track frame offsets: 
#        180
#        12932
#        27510
#        41418
#        56317
#        70193
#        84003
#        95397
#        110315
#        121423
#        132255
#        144405
#        155995
#        169084
#        182915
#        195287
#        209919
#        223734
#        233361
#        245866
#        258533
#
# Disc length: 3584 seconds
#
# Revision: 0
# Processed by: cddbd v1.5.2PL0 Copyright (c) Steve Scherf et al.
# Submitted via: ExactAudioCopy v0.95b4
#
DISCID=290dfe15
DTITLE=Various Artist - 125 Blues Hits CD 5
DYEAR=2006
DGENRE=Blues
TTITLE0=John Lee Hooker - Everybody's Blues
TTITLE1=Arthur Big Boy Crudup - Just like a spider
TTITLE2=Big Bill Broonzy - Horny Frog
TTITLE3=Bessie Smith - Aggravatin' Papa
TTITLE4=John Lee Hooker - Apologize
TTITLE5=Mary Johnson - Delmar Avenue
TTITLE6=Champion Jack Dupree - Chain Gang Blues
TTITLE7=Memphis Minnie - Bumble bee
TTITLE8=Sleepy John Estes - Liquor Store Blues
TTITLE9=Sonny Terry and Brownie McGhee - Baby let's have some fun
TTITLE10=Brother George and his sanctified singers - Twelve gates to t
TTITLE10=he city
TTITLE11=Muddy Waters - Gypsy woman
TTITLE12=Sonny Terry - Blowing the blues
TTITLE13=Blind Willie McTell - Georgia Rag
TTITLE14=T-Bone Walker - I know your wig is gone
TTITLE15=Mississippi John Hurt - Spike driver blues
TTITLE16=Willie Dixon - If the sea was whiskey
TTITLE17=Leadbelly - Midnight special
TTITLE18=Lonnie Johnson - Mr. Johnson's swing
TTITLE19=Lightnin' Hopkins - Picture on the wall
TTITLE20=Lowell Fulson - San Francisco Blues
EXTD=
EXTT0=
EXTT1=
EXTT2=
EXTT3=
EXTT4=
EXTT5=
EXTT6=
EXTT7=
EXTT8=
EXTT9=
EXTT10=
EXTT11=
EXTT12=
EXTT13=
EXTT14=
EXTT15=
EXTT16=
EXTT17=
EXTT18=
EXTT19=
EXTT20=
PLAYORDER=
